<?xml version="1.0" encoding="UTF-8"?>
<svg width="1200pt" height="1200pt" version="1.1" viewBox="0 0 1200 1200" xmlns="http://www.w3.org/2000/svg">
 <g>
  <path d="m401.04 832.74c-26.734-96.109-52.934-212.48-54.48-303.48h-1.2227c-27.156 0-72 18.203-72 71.34 0 15.48 0 154.66 9.1094 239.04 33.945-2.4805 73.449-4.9766 118.59-6.8984z"/>
  <path d="m1183.8 316.92c-10.355-7.5117-49.008-42.527-128.14-35.699l-10.246 65.16c20.93 3.5391 50.375 0.9375 50.375 0.9375s7.0195 0.32422 13.488-9.2266c6.4336-9.5898 44.137-0.43359 57.516 4.8828 13.391 5.2891 27.996-18.09 17.004-26.055z"/>
  <path d="m1018.4 870.02c-23.891 0.15625-56.148-2.5078-96.816-5.832-74.914-6.0977-188.11-15.324-350.7-15.324-4.8711-24.816-43.789-13.105-55.273-39.742-16.609-46.895-20.797-82.57-24.012-108.25-7.9688-50.461-8.2422-107.66 10.234-173.55 6.2773 1.7383 14.93 3.8516 21.828 6.1445-20.328 72.445-16.57 134.41-5.125 188.2 19.344 8.6406 45.73 10.043 71.316 0.80469 13.738-4.9453 49.355-15.012 87.145-32.617 14.902-6.9492 28.055-3.9609 31.789 13.586 2.4844 11.605 21.91 82.57 34.801 129.31 53.965 2.3281 99.551 5.4492 137.63 8.375-23.375-76.789-69.359-243.23-77.039-269.87-10.117-35.16-47.953-50.855-77.125-41.629-11.605 3.6719-34.379 12.059-57.613 20.82-12.086-51.504-11.449-116.75 50.699-153.36 6.4688-3.4062 13.344-6.5039 20.734-9.1797 73.957-26.832 173.17-37.176 279.56-28.934l13.754-87.383c-120.19-6.9961-223.11-3.7422-308.75 6.707-6.2656 0.75781-12.012 0.98438-17.531 0.98438-5.4961-23.004-19.609-42.684-40.922-53.102-24.602-12.023-53.016-8.9648-76.766 5.4609-7.8711-3.5508-16.367-6.8984-25.848-9.875-40.078-6.793-87.73 5.2188-108.12 51.133-19.871 44.734 0.23828 62.258-4.668 89.664-18.238 12.395-32.316 25.32-42.109 38.328-25.453 31.188-36.875 76.836-39.613 127.99-0.21484 0.023438 0.20312-0.011718 0 0 1.1992 74.832 58.344 316.6 59.566 322.45-89.711 3.1562-158.34 8.7461-209.23 12.875-40.68 3.3242-72.863 5.9414-96.816 5.832-62.699-0.25391-102.38-43.402-102.74-43.801l-20.312 18.082c1.9219 2.1602 47.785 52.621 122.94 52.906 25.199-0.20312 57.805-2.5547 99.133-5.9141 54.59-4.4414 123.17-10.031 213.67-13.055 3.1914 9.4688 7.043 15.215 13.453 18.098 14.566 6.5391 69.898 6.5391 81.707-1.6562 6.8047-4.7148 6.1445-10.008 11.867-18.527 9.0977-0.070313 18.324-0.097656 27.781-0.097656 161.47 0 269.57 8.7969 348.49 15.238 40.57 3.3008 72.77 5.9141 97.754 5.9141h1.3672c75.156-0.28906 121.02-50.746 122.94-52.906l-20.305-18.098c-0.38672 0.43359-39.578 43.562-102.73 43.801zm-417.62-559.51c6.7812 3.2773 40.262 31.297 98.062 33.277-6.8164 20.734-19.152 40.105-28.871 38.879-9.7188-1.2227-2.375-25.273-14.988-30.227-12.613-4.957-26.785 18.395-49.738 10.738-22.934-7.6445-15.77-37.812-4.4648-52.668z"/>
 </g>
</svg>
